<?xml version="1.0" encoding="utf-8"?>
<!-- Generator: Adobe Illustrator 16.0.0, SVG Export Plug-In . SVG Version: 6.00 Build 0)  -->
<!DOCTYPE svg PUBLIC "-//W3C//DTD SVG 1.1//EN" "http://www.w3.org/Graphics/SVG/1.1/DTD/svg11.dtd">
<svg version="1.1" id="Layer_1" xmlns="http://www.w3.org/2000/svg" xmlns:xlink="http://www.w3.org/1999/xlink" x="0px" y="0px"
	 width="138.554px" height="34.708px" viewBox="0 0 138.554 34.708" enable-background="new 0 0 138.554 34.708"
	 xml:space="preserve">
<g>
	<g>
		<path fill="#FFFFFF" d="M8.513,16.6c-1.344-0.561-2.161-1.185-2.161-2.257c0-0.673,0.512-1.761,2.209-1.761
			c0.976,0,1.985,0.672,2.097,0.736c0.256,0.144,0.416,0.08,0.56-0.145c0.064-0.096,0.128-0.208,0.192-0.304
			c0.192-0.305,0-0.496-0.096-0.544c0,0-1.168-0.816-2.737-0.816c-2.545,0-3.41,1.761-3.41,2.849c0,1.825,1.057,2.545,2.817,3.313
			c1.84,0.769,2.801,1.425,2.801,2.529c0,0.944-0.848,1.761-2.145,1.761c-1.425,0-2.593-1.121-2.705-1.217
			c-0.224-0.192-0.4-0.064-0.561,0.145c-0.08,0.096-0.16,0.208-0.24,0.304c-0.192,0.304-0.032,0.433,0.096,0.544
			c0.208,0.192,1.489,1.297,3.377,1.297c1.873,0,3.458-1.217,3.458-2.881C12.066,18.296,10.674,17.479,8.513,16.6z M25.971,20.617
			c-0.096-0.064-0.224-0.08-0.384,0.048c-0.849,0.641-1.665,1.2-3.057,1.2c-2.529,0-4.466-2.129-4.466-4.594
			c0-2.48,1.937-4.609,4.466-4.609c1.088,0,2.225,0.48,3.057,1.2c0.16,0.16,0.288,0.176,0.416,0.016l0.432-0.432
			c0.128-0.128,0.112-0.32-0.016-0.448c-1.088-0.929-2.257-1.488-3.874-1.488c-3.202,0-5.778,2.577-5.778,5.778
			s2.577,5.746,5.778,5.746c1.424,0,2.801-0.496,3.889-1.553c0.112-0.112,0.144-0.336,0.016-0.432L25.971,20.617z M40.035,15.079
			c0-1.905-1.569-3.409-3.489-3.409h-4.146c-0.176,0-0.304,0.144-0.304,0.304V22.57c0,0.159,0.128,0.304,0.304,0.304h0.625
			c0.16,0,0.304-0.145,0.304-0.304v-4.082h3.057l2.129,4.241c0.032,0.064,0.112,0.145,0.256,0.145h0.816
			c0.272,0,0.384-0.256,0.272-0.464l-2.193-4.065C39.058,17.784,40.035,16.552,40.035,15.079z M36.465,17.432H33.36v-4.594h3.105
			c1.232,0,2.305,1.04,2.305,2.257C38.77,16.407,37.698,17.432,36.465,17.432z M50.802,11.51c-3.202,0-5.747,2.577-5.747,5.778
			s2.544,5.746,5.747,5.746c3.201,0,5.762-2.545,5.762-5.746S54.003,11.51,50.802,11.51z M50.802,21.914
			c-2.545,0-4.626-2.081-4.626-4.626s2.081-4.658,4.626-4.658s4.642,2.113,4.642,4.658S53.347,21.914,50.802,21.914z M68.05,21.802
			h-4.61v-9.828c0-0.16-0.144-0.304-0.304-0.304h-0.624c-0.177,0-0.305,0.144-0.305,0.304V22.57c0,0.159,0.128,0.304,0.305,0.304
			h5.538c0.176,0,0.304-0.145,0.304-0.304v-0.465C68.354,21.945,68.226,21.802,68.05,21.802z M79.105,21.802h-4.609v-9.828
			c0-0.16-0.145-0.304-0.305-0.304h-0.624c-0.176,0-0.304,0.144-0.304,0.304V22.57c0,0.159,0.128,0.304,0.304,0.304h5.538
			c0.177,0,0.305-0.145,0.305-0.304v-0.465C79.41,21.945,79.282,21.802,79.105,21.802z M92.016,11.67h-0.641
			c-0.16,0-0.304,0.144-0.304,0.304V22.57c0,0.159,0.144,0.304,0.304,0.304h0.641c0.16,0,0.304-0.145,0.304-0.304V11.974
			C92.319,11.813,92.176,11.67,92.016,11.67z M104.369,11.67h-6.786c-0.177,0-0.305,0.144-0.305,0.304v0.464
			c0,0.16,0.128,0.305,0.305,0.305h2.784v9.828c0,0.159,0.145,0.304,0.305,0.304h0.608c0.16,0,0.304-0.145,0.304-0.304v-9.828h2.785
			c0.176,0,0.304-0.145,0.304-0.305v-0.464C104.673,11.813,104.545,11.67,104.369,11.67z M132.954,15.79L120.715,1.502
			c-0.735-0.858-1.932-0.858-2.669,0c-0.735,0.86-0.735,2.257,0,3.115l10.913,12.737L118.046,30.09c-0.735,0.86-0.735,2.254,0,3.115
			c0.737,0.86,1.934,0.86,2.669,0l12.239-14.284c0.372-0.436,0.557-1.003,0.554-1.566C133.508,16.786,133.326,16.223,132.954,15.79z
			"/>
	</g>
</g>
</svg>
